HIERARCHY
ROOT Hips
{
    OFFSET   0.000000   0.000000   0.000000
    CHANNELS 6 Xposition Yposition Zposition Zrotation Xrotation Yrotation
    JOINT Chest
    {
        OFFSET   0.000000   8.007230   0.000000
        CHANNELS 3 Zrotation Xrotation Yrotation
        JOINT Chest2
        {
            OFFSET   0.000000  22.077100   0.000000
            CHANNELS 3 Zrotation Xrotation Yrotation
            JOINT Neck
            {
                OFFSET   0.000000  23.255100   0.000000
                CHANNELS 3 Zrotation Xrotation Yrotation
                JOINT Head
                {
                    OFFSET   0.000000  14.370100   1.956600
                    CHANNELS 3 Zrotation Xrotation Yrotation
                    End Site
                    {
                        OFFSET   0.000000  19.566000   0.000000
                    }
                }
            }
            JOINT LeftCollar
            {
                OFFSET   3.911900  19.017000  -0.467063
                CHANNELS 3 Zrotation Xrotation Yrotation
                JOINT LeftShoulder
                {
                    OFFSET  10.383700   0.000000   0.000000
                    CHANNELS 3 Zrotation Xrotation Yrotation
                    JOINT LeftElbow
                    {
                        OFFSET  26.662100   0.001193   0.000980
                        CHANNELS 3 Zrotation Xrotation Yrotation
                        JOINT LeftWrist
                        {
                            OFFSET  28.869000  -0.000059  -0.000082
                            CHANNELS 3 Zrotation Xrotation Yrotation
                            JOINT LeftFinger0
                            {
                                OFFSET   2.044650  -2.323450   3.252850
                                CHANNELS 3 Zrotation Xrotation Yrotation
                                JOINT LeftFinger01
                                {
                                    OFFSET   3.088130   0.000000   0.000000
                                    CHANNELS 3 Zrotation Xrotation Yrotation
                                    JOINT LeftFinger02
                                    {
                                        OFFSET   2.639460   0.000000   0.000000
                                        CHANNELS 3 Zrotation Xrotation Yrotation
                                        End Site
                                        {
                                            OFFSET   2.582190   0.000000   0.000000
                                        }
                                    }
                                }
                            }
                            JOINT LeftFinger1
                            {
                                OFFSET   8.364480   0.000000   3.252850
                                CHANNELS 3 Zrotation Xrotation Yrotation
                                JOINT LeftFinger11
                                {
                                    OFFSET   4.646930   0.000000   0.000000
                                    CHANNELS 3 Zrotation Xrotation Yrotation
                                    JOINT LeftFinger12
                                    {
                                        OFFSET   2.323470   0.000000   0.000000
                                        CHANNELS 3 Zrotation Xrotation Yrotation
                                        End Site
                                        {
                                            OFFSET   2.273050   0.000000   0.000000
                                        }
                                    }
                                }
                            }
                            JOINT LeftFinger2
                            {
                                OFFSET   8.364490   0.000016   1.078090
                                CHANNELS 3 Zrotation Xrotation Yrotation
                                JOINT LeftFinger21
                                {
                                    OFFSET   5.111610   0.000000   0.000000
                                    CHANNELS 3 Zrotation Xrotation Yrotation
                                    JOINT LeftFinger22
                                    {
                                        OFFSET   2.788150   0.000016   0.000000
                                        CHANNELS 3 Zrotation Xrotation Yrotation
                                        End Site
                                        {
                                            OFFSET   2.727660   0.000000   0.000000
                                        }
                                    }
                                }
                            }
                            JOINT LeftFinger3
                            {
                                OFFSET   7.899780   0.000015  -1.078090
                                CHANNELS 3 Zrotation Xrotation Yrotation
                                JOINT LeftFinger31
                                {
                                    OFFSET   4.646930   0.000000   0.000000
                                    CHANNELS 3 Zrotation Xrotation Yrotation
                                    JOINT LeftFinger32
                                    {
                                        OFFSET   2.323470   0.000000   0.000000
                                        CHANNELS 3 Zrotation Xrotation Yrotation
                                        End Site
                                        {
                                            OFFSET   2.273050   0.000000   0.000000
                                        }
                                    }
                                }
                            }
                            JOINT LeftFinger4
                            {
                                OFFSET   7.435090   0.000000  -3.252850
                                CHANNELS 3 Zrotation Xrotation Yrotation
                                JOINT LeftFinger41
                                {
                                    OFFSET   3.717550   0.000000   0.000000
                                    CHANNELS 3 Zrotation Xrotation Yrotation
                                    JOINT LeftFinger42
                                    {
                                        OFFSET   1.858770   0.000000   0.000000
                                        CHANNELS 3 Zrotation Xrotation Yrotation
                                        End Site
                                        {
                                            OFFSET   1.818440   0.000000   0.000000
                                        }
                                    }
                                }
                            }
                        }
                    }
                }
            }
            JOINT RightCollar
            {
                OFFSET  -3.911910  19.017000  -0.467062
                CHANNELS 3 Zrotation Xrotation Yrotation
                JOINT RightShoulder
                {
                    OFFSET -10.383700   0.000014   0.000000
                    CHANNELS 3 Zrotation Xrotation Yrotation
                    JOINT RightElbow
                    {
                        OFFSET -26.662100   0.001225   0.001091
                        CHANNELS 3 Zrotation Xrotation Yrotation
                        JOINT RightWrist
                        {
                            OFFSET -28.869000  -0.000020  -0.000085
                            CHANNELS 3 Zrotation Xrotation Yrotation
                            JOINT RightFinger0
                            {
                                OFFSET  -2.044650  -2.323490   3.252850
                                CHANNELS 3 Zrotation Xrotation Yrotation
                                JOINT RightFinger01
                                {
                                    OFFSET  -3.088130   0.000000   0.000000
                                    CHANNELS 3 Zrotation Xrotation Yrotation
                                    JOINT RightFinger02
                                    {
                                        OFFSET  -2.639460   0.000000   0.000000
                                        CHANNELS 3 Zrotation Xrotation Yrotation
                                        End Site
                                        {
                                            OFFSET  -2.582190   0.000000   0.000000
                                        }
                                    }
                                }
                            }
                            JOINT RightFinger1
                            {
                                OFFSET  -8.364480   0.000000   3.252850
                                CHANNELS 3 Zrotation Xrotation Yrotation
                                JOINT RightFinger11
                                {
                                    OFFSET  -4.646930   0.000000   0.000000
                                    CHANNELS 3 Zrotation Xrotation Yrotation
                                    JOINT RightFinger12
                                    {
                                        OFFSET  -2.323470   0.000000   0.000000
                                        CHANNELS 3 Zrotation Xrotation Yrotation
                                        End Site
                                        {
                                            OFFSET  -2.273050   0.000000   0.000000
                                        }
                                    }
                                }
                            }
                            JOINT RightFinger2
                            {
                                OFFSET  -8.364480   0.000000   1.078090
                                CHANNELS 3 Zrotation Xrotation Yrotation
                                JOINT RightFinger21
                                {
                                    OFFSET  -5.111620   0.000000   0.000000
                                    CHANNELS 3 Zrotation Xrotation Yrotation
                                    JOINT RightFinger22
                                    {
                                        OFFSET  -2.788160   0.000000   0.000000
                                        CHANNELS 3 Zrotation Xrotation Yrotation
                                        End Site
                                        {
                                            OFFSET  -2.727660   0.000000   0.000000
                                        }
                                    }
                                }
                            }
                            JOINT RightFinger3
                            {
                                OFFSET  -7.899780   0.000000  -1.078090
                                CHANNELS 3 Zrotation Xrotation Yrotation
                                JOINT RightFinger31
                                {
                                    OFFSET  -4.646930   0.000000   0.000000
                                    CHANNELS 3 Zrotation Xrotation Yrotation
                                    JOINT RightFinger32
                                    {
                                        OFFSET  -2.323470   0.000000   0.000000
                                        CHANNELS 3 Zrotation Xrotation Yrotation
                                        End Site
                                        {
                                            OFFSET  -2.273050   0.000000   0.000000
                                        }
                                    }
                                }
                            }
                            JOINT RightFinger4
                            {
                                OFFSET  -7.435090   0.000000  -3.252850
                                CHANNELS 3 Zrotation Xrotation Yrotation
                                JOINT RightFinger41
                                {
                                    OFFSET  -3.717550   0.000000   0.000000
                                    CHANNELS 3 Zrotation Xrotation Yrotation
                                    JOINT RightFinger42
                                    {
                                        OFFSET  -1.858760   0.000000   0.000000
                                        CHANNELS 3 Zrotation Xrotation Yrotation
                                        End Site
                                        {
                                            OFFSET  -1.818440   0.000000   0.000000
                                        }
                                    }
                                }
                            }
                        }
                    }
                }
            }
        }
    }
    JOINT LeftHip
    {
        OFFSET   9.783030   0.000000   0.000000
        CHANNELS 3 Zrotation Xrotation Yrotation
        JOINT LeftKnee
        {
            OFFSET   0.000063 -41.789100   0.000608
            CHANNELS 3 Zrotation Xrotation Yrotation
            JOINT LeftAnkle
            {
                OFFSET   0.000048 -41.133200  -0.000184
                CHANNELS 3 Zrotation Xrotation Yrotation
                JOINT LeftToe
                {
                    OFFSET   0.000000  -6.358960  14.674500
                    CHANNELS 3 Zrotation Xrotation Yrotation
                    End Site
                    {
                        OFFSET   0.000000   0.000000   3.913200
                    }
                }
            }
        }
    }
    JOINT RightHip
    {
        OFFSET  -9.783030   0.000000   0.000000
        CHANNELS 3 Zrotation Xrotation Yrotation
        JOINT RightKnee
        {
            OFFSET   0.000071 -41.789100   0.001239
            CHANNELS 3 Zrotation Xrotation Yrotation
            JOINT RightAnkle
            {
                OFFSET   0.000037 -41.133200  -0.000166
                CHANNELS 3 Zrotation Xrotation Yrotation
                JOINT RightToe
                {
                    OFFSET   0.000000  -6.358960  14.674500
                    CHANNELS 3 Zrotation Xrotation Yrotation
                    End Site
                    {
                        OFFSET   0.000000   0.000000   3.913200
                    }
                }
            }
        }
    }
}
MOTION
Frames: 4
Frame Time:   0.016667
  5.226790  89.445800  -0.063014  -2.194590 -16.831500  -2.417110   1.061990  12.086600   0.536161   2.077200  24.181000   0.867010  -2.961790  -2.260190  -0.116854  -4.886140  -4.546390  10.774800 -11.958600  -5.971940   7.511670 -60.147700  32.897000 -44.791500   3.713400  -6.671460 -50.909400   4.612040 -36.798800  -6.920820  41.959600  26.590400 -63.688000 -13.896000   0.002997   0.002954  -1.948020  -0.001519   0.001249 -12.350400  -0.795094   3.626580 -10.125500   0.003727   0.003077  -7.087830   0.003225   0.002681 -25.022500  -4.233370   8.988910 -25.355300   0.003767   0.006815 -16.886600   0.001129   0.001094 -18.889200  -3.342850   9.671210 -19.172100  -0.001792  -0.002164 -12.768600   0.002861  -0.001892 -19.444000  -4.623480  12.862200 -29.948200   0.002157  -0.000835 -19.945500   0.001003   0.000071   6.917150  -1.917890  15.243600  61.627700  16.050400  37.630000 -11.651200   0.890615  57.393600 -38.106400 -20.890900  32.161800 -39.213000  27.960300  68.626300   2.957680  -0.001752  -0.000000  -3.521160   0.003652  -0.000359  27.238600  -0.714318  -1.387330  22.293200   0.001299  -0.003782  15.605200   0.003335  -0.003696  24.413400  -0.964575  -2.124470  24.431100   0.002757  -0.000885  16.271100   0.000518   0.000585  20.225500  -0.809715  -2.196910  20.240800   0.008327  -0.003129  13.480400   0.005979  -0.003296  14.273200  -2.064510  -8.059790  21.628000   0.005564  -0.003225  14.404300   0.000562   0.001896   1.361970  18.763500   1.652630  -1.239930   0.474591  11.817500  -1.632430  -3.098270   1.845420   0.000000   0.000000   0.000000  -3.113070  16.568200  -5.331370  -0.700598   4.671390 -12.849300   3.416890  -2.085560   1.538930   0.000000   0.000000  -0.000000
  5.222570  89.446200  -0.031837  -2.189830 -16.795100  -2.398530   1.054410  12.057600   0.531105   2.062600  24.122900   0.858760  -2.942180  -2.324140  -0.119531  -4.856310  -4.675590  10.747800 -11.959600  -5.981870   7.494200 -60.121600  32.903000 -44.783400   3.703870  -6.671890 -50.889800   4.578070 -36.942100  -6.982240  42.057600  26.715900 -63.757000 -13.979100   0.002935   0.002939  -1.989520  -0.001508   0.001195 -12.299000  -0.806939   3.699010 -10.084200   0.003746   0.003078  -7.058950   0.003210   0.002677 -25.006000  -4.233050   8.995350 -25.339200   0.003826   0.006881 -16.875900   0.001236   0.001189 -18.902800  -3.352370   9.691480 -19.187600  -0.001792  -0.002173 -12.778900   0.002858  -0.001902 -19.451800  -4.630580  12.869400 -29.962300   0.002182  -0.000799 -19.954800   0.001007   0.000103   6.920260  -1.905060  15.234100  61.556700  16.040800  37.651400 -11.596600   0.871929  57.363200 -38.063600 -20.959600  32.110300 -39.219700  28.010700  68.677300   2.870900  -0.001769  -0.000048  -3.564550   0.003653  -0.000409  27.243600  -0.709024  -1.376930  22.297200   0.001742  -0.003735  15.608000   0.003337  -0.003660  24.390600  -0.998843  -2.201890  24.410000   0.002749  -0.000834  16.257000   0.000563   0.000614  20.193600  -0.835870  -2.272000  20.210000   0.008487  -0.003291  13.459900   0.005999  -0.003449  14.214300  -2.035640  -7.972940  21.534800   0.005904  -0.003543  14.342200   0.000700   0.001901   1.364820  18.752500   1.653220  -1.237180   0.457313  11.781600  -1.617620  -3.105150   1.866840  -0.000000   0.000000  -0.000000  -3.118050  16.570100  -5.353870  -0.685217   4.645970 -12.846500   3.415360  -2.097730   1.542870   0.000000   0.000000  -0.000000
  5.214150  89.446600  -0.000156  -2.188010 -16.759100  -2.385680   1.047450  12.029000   0.526704   2.049150  24.065600   0.851714  -2.920300  -2.382550  -0.121503  -4.820740  -4.793790  10.707200 -11.963100  -5.993420   7.475740 -60.098300  32.912000 -44.773800   3.694970  -6.671830 -50.873700   4.572290 -37.059500  -7.012870  42.147700  26.832900 -63.835200 -14.061600   0.002878   0.002924  -2.030760  -0.001496   0.001139 -12.252000  -0.814131   3.743420 -10.046100   0.003766   0.003079  -7.032290   0.003196   0.002672 -25.000600  -4.232760   8.998510 -25.334000   0.003883   0.006948 -16.872400   0.001344   0.001284 -18.930000  -3.360450   9.699020 -19.215200  -0.001792  -0.002184 -12.797300   0.002854  -0.001912 -19.469700  -4.633170  12.870500 -29.988900   0.002214  -0.000763 -19.972600   0.001008   0.000134   6.926170  -1.893530  15.228200  61.487700  16.032700  37.665300 -11.542300   0.853016  57.341100 -38.027500 -21.045700  32.037000 -39.237300  28.104500  68.791800   2.742050  -0.001786  -0.000094  -3.628960   0.003653  -0.000461  27.253300  -0.696950  -1.353120  22.304900   0.002189  -0.003686  15.613400   0.003337  -0.003624  24.368900  -1.017790  -2.245900  24.388800   0.002744  -0.000783  16.242900   0.000610   0.000640  20.174100  -0.850489  -2.313420  20.191300   0.008648  -0.003450  13.447400   0.006018  -0.003604  14.171100  -1.995780  -7.852880  21.461900   0.006247  -0.003869  14.293700   0.000836   0.001902   1.371280  18.741600   1.653820  -1.234510   0.441789  11.746100  -1.602710  -3.114030   1.890900   0.000000   0.000000   0.000000  -3.119700  16.573500  -5.380490  -0.670339   4.617870 -12.843600   3.412690  -2.108250   1.554130   0.000000   0.000000  -0.000000
  5.204800  89.447000   0.032531  -2.189570 -16.723700  -2.375650   1.043490  11.999900   0.521795   2.042020  24.007300   0.842937  -2.897440  -2.433290  -0.122151  -4.784020  -4.896580  10.647700 -11.976500  -6.005470   7.460300 -60.079700  32.926000 -44.764400   3.696260  -6.664340 -50.849600   4.610420 -37.140100  -7.005970  42.242300  26.993300 -63.995400 -14.113900   0.002841   0.002942  -2.056900  -0.001491   0.001070 -12.223400  -0.811517   3.739180 -10.022600   0.003785   0.003078  -7.015840   0.003185   0.002679 -25.008900  -4.232530   8.997070 -25.342200   0.003931   0.007017 -16.877800   0.001459   0.001378 -18.958700  -3.363500   9.694570 -19.244100  -0.001776  -0.002198 -12.816500   0.002836  -0.001922 -19.489400  -4.634090  12.858900 -30.018200   0.002250  -0.000724 -19.992100   0.001004   0.000168   6.936440  -1.887490  15.227100  61.521800  16.069200  37.660100 -11.596100   0.854875  57.301400 -37.994300 -21.059700  32.011700 -39.263600  28.251300  68.972300   2.569440  -0.001809  -0.000144  -3.715270   0.003653  -0.000495  27.284500  -0.658829  -1.277260  22.329700   0.002645  -0.003644  15.630700   0.003335  -0.003588  24.383200  -0.996412  -2.197250  24.402300   0.002722  -0.000729  16.251900   0.000648   0.000659  20.168000  -0.832001  -2.264080  20.184400   0.008803  -0.003614  13.442800   0.006028  -0.003765  14.158900  -1.982930  -7.806880  21.441100   0.006610  -0.004214  14.279800   0.000964   0.001889   1.380840  18.730400   1.652660  -1.232460   0.431906  11.717600  -1.589280  -3.128110   1.911960   0.000000   0.000000   0.000000  -3.117970  16.580600  -5.404800  -0.654383   4.585900 -12.848700   3.407950  -2.116260   1.574230   0.000000   0.000000   0.000000
